<svg width="17" height="20" viewBox="0 0 17 20" fill="none" xmlns="http://www.w3.org/2000/svg">
<path fill-rule="evenodd" clip-rule="evenodd" d="M14.6377 7.02593C14.8917 7.02809 15.1175 7.03 15.3168 7.03C15.4578 7.03 15.6405 7.02789 15.8381 7.02561C16.0708 7.02292 16.3242 7.02 16.5545 7.02C16.802 7.02 17 7.22 17 7.47V15.51C17 17.99 15.0099 20 12.5545 20H4.67327C2.09901 20 0 17.89 0 15.29V4.51C0 2.03 2 0 4.46535 0H9.75247C10.0099 0 10.2079 0.21 10.2079 0.46V3.68C10.2079 5.51 11.703 7.01 13.5149 7.02C13.9381 7.02 14.3112 7.02316 14.6377 7.02593ZM4.68311 13.64C4.68311 14.05 5.01974 14.39 5.42568 14.39H10.8118C11.2178 14.39 11.5544 14.05 11.5544 13.64C11.5544 13.23 11.2178 12.9 10.8118 12.9H5.42568C5.01974 12.9 4.68311 13.23 4.68311 13.64ZM9.51479 8.65002C9.51479 8.24002 9.17815 7.90002 8.77221 7.90002H5.42568C5.01974 7.90002 4.68311 8.24002 4.68311 8.65002C4.68311 9.06002 5.01974 9.39002 5.42568 9.39002H8.77221C9.17815 9.39002 9.51479 9.06002 9.51479 8.65002Z" fill="#5835FB"/>
<path d="M16.4506 4.75901C16.7397 5.06201 16.5279 5.56501 16.111 5.56601C15.2972 5.56901 14.3378 5.56601 13.6477 5.55901C12.5526 5.55901 11.6506 4.64801 11.6506 3.54201V0.906008C11.6506 0.475008 12.1685 0.261008 12.4645 0.572008C13.0005 1.13486 13.737 1.90859 14.4702 2.67874C15.2011 3.44657 15.9287 4.21084 16.4506 4.75901Z" fill="#5835FB"/>
</svg>
