<svg width="18" height="20" viewBox="0 0 18 20" fill="none" xmlns="http://www.w3.org/2000/svg">
<path fill-rule="evenodd" clip-rule="evenodd" d="M1.52052 6.41118L1.5215 6.7154L16.4697 6.69584V6.35346C16.4272 4.25032 15.349 3.14691 13.4139 2.98257L13.4149 3.73579C13.4149 4.15642 13.0802 4.48998 12.6556 4.48998C12.2212 4.49096 11.8944 4.15837 11.8944 3.73775L11.8934 2.9454L6.02866 2.95323L6.02965 3.74459C6.02965 4.1662 5.70481 4.49879 5.27039 4.49879C4.83596 4.49977 4.50916 4.16816 4.50916 3.74655L4.50817 2.99333C2.58288 3.18213 1.51755 4.28945 1.52052 6.41118ZM13.0486 10.3396C12.5944 10.3494 12.239 10.7113 12.2399 11.1613V11.1721C12.2498 11.622 12.625 11.9634 13.0802 11.9536C13.5245 11.9429 13.8789 11.5702 13.869 11.1202C13.8483 10.6898 13.4919 10.3386 13.0486 10.3396ZM12.234 14.7229C12.2242 14.273 12.5885 13.9003 13.0427 13.8895H13.0525C13.5166 13.8895 13.8927 14.2602 13.8927 14.72C13.8937 15.1797 13.5185 15.5524 13.0555 15.5534C12.6013 15.5436 12.235 15.1729 12.234 14.7229ZM8.98075 10.3348C8.52658 10.3544 8.17114 10.7271 8.17213 11.177C8.19187 11.627 8.56805 11.9782 9.02222 11.9586C9.46652 11.9381 9.82097 11.5664 9.80122 11.1164C9.79036 10.6762 9.42505 10.3338 8.98075 10.3348ZM8.17609 14.7279C8.17609 14.278 8.53054 13.9062 8.98472 13.8857C9.42901 13.8847 9.79531 14.2271 9.80519 14.6663C9.82592 15.1173 9.47048 15.489 9.02618 15.5095C8.57201 15.5291 8.19683 15.1779 8.17609 14.7279ZM4.91201 10.369C4.45784 10.3886 4.10339 10.7613 4.10438 11.2112C4.12412 11.6612 4.50029 12.0134 4.95447 11.9928C5.39876 11.9732 5.75321 11.6005 5.73248 11.1506C5.72261 10.7104 5.3573 10.368 4.91201 10.369ZM4.10828 14.7327C4.10729 14.2827 4.46273 13.91 4.9169 13.8905C5.3612 13.8895 5.7275 14.2319 5.73737 14.6721C5.75811 15.122 5.40366 15.4947 4.95837 15.5143C4.5042 15.5348 4.12902 15.1827 4.10828 14.7327ZM13.4109 0.752241C13.4099 0.321831 13.0742 -0.000975987 12.6497 2.21722e-06C12.2152 0.000980421 11.8894 0.323788 11.8904 0.754198L11.8914 1.43894L6.02666 1.44677L6.02567 0.762023C6.02469 0.331613 5.69887 0.00880605 5.26444 0.00978426C4.83002 0.00978426 4.5042 0.33357 4.50519 0.76398L4.50618 1.49763C1.75153 1.74512 -0.00394267 3.57729 6.64975e-06 6.41311L0.0108673 14.5625C0.0148166 17.6429 2.0112 19.5778 5.15189 19.5739L12.8718 19.5641C16.0322 19.5592 18.0039 17.6693 18 14.5977L17.9891 6.35148C17.9862 3.53425 16.1665 1.69719 13.4119 1.48589L13.4109 0.752241Z" fill="#D7D7D7"/>
</svg>
