<svg width="17" height="20" viewBox="0 0 17 20" fill="none" xmlns="http://www.w3.org/2000/svg">
<g opacity="0.2">
<path fill-rule="evenodd" clip-rule="evenodd" d="M9.04951 13.1732V11.4801H10.7624C11.1683 11.4801 11.505 11.1571 11.505 10.7559C11.505 10.3448 11.1683 10.0218 10.7624 10.0218H9.04951V8.32869C9.04951 7.92743 8.72278 7.60446 8.31684 7.60446C7.9109 7.60446 7.57427 7.92743 7.57427 8.32869V10.0218H5.8713C5.46536 10.0218 5.12872 10.3448 5.12872 10.7559C5.12872 11.1571 5.46536 11.4801 5.8713 11.4801H7.57427V13.1732C7.57427 13.5745 7.9109 13.8975 8.31684 13.8975C8.72278 13.8975 9.04951 13.5745 9.04951 13.1732ZM14.6377 6.87623C14.8917 6.87834 15.1175 6.88021 15.3168 6.88021C15.4578 6.88021 15.6405 6.87815 15.8381 6.87592C16.0708 6.87329 16.3242 6.87043 16.5545 6.87043C16.802 6.87043 17 7.06616 17 7.31084V15.1795C17 17.6067 15.0099 19.5739 12.5446 19.5739H4.67327C2.09901 19.5739 0 17.5088 0 14.9642V4.41391C0 1.98675 2 0 4.46535 0H9.75247C10.0099 0 10.2079 0.205526 10.2079 0.450199V3.60159C10.2079 5.3926 11.703 6.86064 13.5149 6.87043C13.9381 6.87043 14.3112 6.87352 14.6377 6.87623ZM16.4496 4.65784C16.7387 4.95439 16.5268 5.44667 16.11 5.44765C15.2961 5.45058 14.3367 5.44765 13.6466 5.4408C12.5516 5.4408 11.6496 4.54921 11.6496 3.46677V0.886936C11.6496 0.46512 12.1674 0.255679 12.4635 0.560053C12.9995 1.11098 13.7362 1.86836 14.4694 2.62221C15.2003 3.37357 15.9277 4.12142 16.4496 4.65784Z" fill="#1B1F31"/>
</g>
</svg>
