<svg width="20" height="18" viewBox="0 0 20 18" fill="none" xmlns="http://www.w3.org/2000/svg">
<path d="M7.34931 0C10.0489 0 12.2123 2.11864 12.2123 4.76238C12.2123 7.40613 10.0489 9.52477 7.34931 9.52477C4.65069 9.52477 2.48631 7.40613 2.48631 4.76238C2.48631 2.11864 4.65069 0 7.34931 0Z" fill="#FD6B22"/>
<path d="M7.34929 17.9999C3.36398 17.9999 0 17.3665 0 14.9173C0 12.47 3.38551 11.8577 7.34929 11.8577C11.3346 11.8577 14.6986 12.491 14.6986 14.9403C14.6986 17.3876 11.3131 17.9999 7.34929 17.9999Z" fill="#FD6B22"/>
<path d="M13.0365 8.49475C12.9611 8.60207 13.0277 8.74676 13.1588 8.76976C13.3408 8.79947 13.5276 8.81767 13.7185 8.82151C15.6167 8.87037 17.3202 7.67355 17.7908 5.87113C18.4885 3.19672 16.4415 0.795405 13.8339 0.795405C13.5511 0.795405 13.2801 0.824152 13.0159 0.876854C12.9797 0.88452 12.9406 0.901768 12.921 0.932432C12.8956 0.971719 12.9141 1.0225 12.9396 1.05604C13.7233 2.13213 14.1734 3.44203 14.1734 4.8487C14.1734 6.19501 13.7605 7.45124 13.0365 8.49475Z" fill="#FD6B22"/>
<path d="M13.5697 10.3832C15.0854 10.3544 16.7155 10.5585 17.3172 10.7023C18.5932 10.9466 19.4317 11.4439 19.7791 12.1693C20.0736 12.7634 20.0736 13.4533 19.7791 14.0474C19.2478 15.1705 17.5335 15.5317 16.8671 15.6247C16.7292 15.6438 16.6186 15.5288 16.6333 15.3928C16.9738 12.2805 14.2664 10.8048 13.5658 10.4656C13.5364 10.4493 13.5296 10.4263 13.5325 10.411C13.5345 10.4014 13.5472 10.386 13.5697 10.3832Z" fill="#FD6B22"/>
</svg>
